<?xml version="1.0" encoding="utf-8"?>
<!-- Generator: Adobe Illustrator 16.0.0, SVG Export Plug-In . SVG Version: 6.00 Build 0)  -->
<!DOCTYPE svg PUBLIC "-//W3C//DTD SVG 1.1//EN" "http://www.w3.org/Graphics/SVG/1.1/DTD/svg11.dtd">
<svg version="1.1" id="Layer_1" xmlns="http://www.w3.org/2000/svg" xmlns:xlink="http://www.w3.org/1999/xlink" x="0px" y="0px"
	 width="612px" height="792px" viewBox="0 0 612 792" enable-background="new 0 0 612 792" xml:space="preserve">
<path fill="#0000FF" d="M612,634c0,37.553-30.447,68-68,68H68c-37.553,0-68-30.447-68-68V158c0-37.553,30.447-68,68-68h476
	c37.553,0,68,30.447,68,68V634z"/>
<path fill="#FFFFFF" d="M378.114,468.114l48.093,48.093c-66.385,66.385-174.029,66.368-240.431-0.017
	c-38.199-38.183-54.298-90.032-48.518-139.825l-68.629,6.239c-3.655,65.28,19.176,131.784,69.054,181.679
	c92.939,92.938,243.661,92.956,336.583,0l48.076,48.076l14.434-158.679L378.114,468.114z M474.283,227.7
	c-92.956-92.939-243.627-92.939-336.583,0l-48.076-48.076L75.191,338.302l158.678-14.433l-48.093-48.093
	c66.402-66.385,174.012-66.385,240.415,0c38.216,38.199,54.298,90.049,48.552,139.842l68.611-6.222
	C547.026,344.099,524.178,277.595,474.283,227.7L474.283,227.7z"/>
</svg>
